HIERARCHY
ROOT Hips
{
 OFFSET 0.000000 0.000000 0.000000
 CHANNELS 6 Xposition Yposition Zposition Yrotation Xrotation Zrotation
 JOINT Chest
 {
  OFFSET 0.000000 12.778769 -0.025672
  CHANNELS 3 Yrotation Xrotation Zrotation
  JOINT Chest2
  {
   OFFSET 0.000000 9.048585 0.046633
   CHANNELS 3 Yrotation Xrotation Zrotation
   JOINT Chest3
   {
    OFFSET 0.000000 8.173956 0.000000
    CHANNELS 3 Yrotation Xrotation Zrotation
    JOINT Chest4
    {
     OFFSET 0.000000 8.173956 0.000000
     CHANNELS 3 Yrotation Xrotation Zrotation
     JOINT Neck
     {
      OFFSET 0.000000 11.254521 0.000000
      CHANNELS 3 Yrotation Xrotation Zrotation
      JOINT Head
      {
       OFFSET 0.000000 7.627541 0.110895
       CHANNELS 3 Yrotation Xrotation Zrotation
       End Site
       {
        OFFSET 0.000000 14.324091 0.057923
       }
      }
     }
     JOINT RightCollar
     {
      OFFSET -2.416021 6.309018 0.000000
      CHANNELS 3 Yrotation Xrotation Zrotation
      JOINT RightShoulder
      {
       OFFSET -12.309578 0.000000 0.000000
       CHANNELS 3 Yrotation Xrotation Zrotation
       JOINT RightElbow
       {
        OFFSET -26.817880 0.000000 0.000000
        CHANNELS 3 Yrotation Xrotation Zrotation
        JOINT RightWrist
        {
         OFFSET -22.046493 0.000000 0.005727
         CHANNELS 3 Yrotation Xrotation Zrotation
         End Site
         {
          OFFSET -16.516461 0.000000 0.000000
         }
        }
       }
      }
     }
     JOINT LeftCollar
     {
      OFFSET 2.416021 6.309018 0.000000
      CHANNELS 3 Yrotation Xrotation Zrotation
      JOINT LeftShoulder
      {
       OFFSET 12.309578 0.000000 0.000000
       CHANNELS 3 Yrotation Xrotation Zrotation
       JOINT LeftElbow
       {
        OFFSET 26.817880 0.000000 0.000000
        CHANNELS 3 Yrotation Xrotation Zrotation
        JOINT LeftWrist
        {
         OFFSET 22.046493 0.000000 0.005727
         CHANNELS 3 Yrotation Xrotation Zrotation
         End Site
         {
          OFFSET 16.516461 0.000000 0.000000
         }
        }
       }
      }
     }
    }
   }
  }
 }
 JOINT RightHip
 {
  OFFSET -10.582077 0.125794 0.012836
  CHANNELS 3 Yrotation Xrotation Zrotation
  JOINT RightKnee
  {
   OFFSET 0.000000 -43.218284 0.001140
   CHANNELS 3 Yrotation Xrotation Zrotation
   JOINT RightAnkle
   {
    OFFSET 0.000000 -37.342314 0.092095
    CHANNELS 3 Yrotation Xrotation Zrotation
    JOINT RightToe
    {
     OFFSET 0.000000 -11.963287 17.799678
     CHANNELS 3 Yrotation Xrotation Zrotation
     End Site
     {
      OFFSET 0.000000 -1.355498 5.291052
     }
    }
   }
  }
 }
 JOINT LeftHip
 {
  OFFSET 10.582077 0.125794 0.012836
  CHANNELS 3 Yrotation Xrotation Zrotation
  JOINT LeftKnee
  {
   OFFSET 0.000000 -43.218284 0.001140
   CHANNELS 3 Yrotation Xrotation Zrotation
   JOINT LeftAnkle
   {
    OFFSET 0.000000 -37.342314 0.092095
    CHANNELS 3 Yrotation Xrotation Zrotation
    JOINT LeftToe
    {
     OFFSET 0.000000 -11.963287 17.799678
     CHANNELS 3 Yrotation Xrotation Zrotation
     End Site
     {
      OFFSET 0.000000 -1.355498 5.291052
     }
    }
   }
  }
 }
}
MOTION
Frames: 9
Frame Time: 0.016667
-46.219767 94.066484 17.117619 121.131253 -3.554847 1.664208 5.100963 -3.536305 -0.841105 2.236311 -1.751703 -0.386712 2.236311 -1.751703 -0.386712 1.675994 -1.315213 -0.283605 27.654170 23.088048 3.784024 48.850627 9.080182 0.387058 -5.284270 9.831002 12.336392 11.933777 -4.751523 69.740171 -63.001332 1.567223 47.499237 -5.999699 -4.310674 -17.594139 -3.074176 13.273219 -11.571100 4.239262 -12.866116 -74.134476 83.699586 -0.562098 -32.128558 15.427493 -10.136953 0.270025 -5.164188 14.960737 1.135359 18.606334 -9.812536 -2.359345 11.269691 -7.694394 0.314356 0.032303 -0.073642 0.324060 5.186510 30.537497 4.204523 -9.344235 -30.215699 -2.640682 -5.618729 3.009099 -7.121985 -0.726019 -8.034386 0.564168
-46.473174 94.122264 17.119391 120.357684 -3.770558 1.736336 5.176191 -3.409699 -0.818050 2.280915 -1.749536 -0.374897 2.280915 -1.749536 -0.374897 1.709481 -1.313573 -0.274624 27.716085 23.145772 3.831697 48.944764 9.178786 0.477904 -5.298015 9.758210 12.354748 11.920871 -4.633168 69.658707 -62.702357 1.777109 47.653455 -5.905076 -4.150519 -17.636765 -3.099600 13.311644 -11.586789 4.631808 -12.766914 -74.343034 83.704709 -0.518578 -32.048108 15.481933 -10.091195 0.313266 -4.716290 14.983349 0.958410 18.750774 -9.896106 -2.427157 11.487507 -7.502888 0.525818 -0.063651 -0.105341 0.284503 4.911520 30.779279 4.022333 -9.157723 -28.879163 -2.968697 -5.591893 3.117815 -6.789105 -0.668988 -7.677414 0.600294
-46.778180 94.173559 17.094472 119.572947 -3.864321 1.799276 5.229942 -3.401652 -0.801817 2.315521 -1.745810 -0.367206 2.315521 -1.745810 -0.367206 1.735458 -1.310772 -0.268771 27.752612 23.191533 3.884227 48.992906 9.249150 0.577190 -5.313007 9.698574 12.374162 11.930925 -4.518946 69.602653 -62.472414 2.003223 47.771213 -5.870702 -4.051690 -17.604824 -3.117026 13.364894 -11.593975 5.000266 -12.684760 -74.508368 83.700937 -0.451831 -32.006242 15.542184 -10.063012 0.359416 -4.236753 14.843674 0.777935 18.828385 -9.949331 -2.464740 11.948781 -7.314580 0.747180 -0.155819 -0.121130 0.241694 4.421330 30.941717 3.749887 -9.093250 -27.846005 -3.152348 -5.486177 3.156531 -6.485627 -0.580786 -7.161816 0.613022
-47.134506 94.222095 17.042061 118.823204 -3.861457 1.879806 5.221152 -3.469240 -0.818722 2.338366 -1.743139 -0.362660 2.338366 -1.743139 -0.362660 1.752605 -1.308765 -0.265307 27.778983 23.222214 3.936325 49.024208 9.290741 0.672415 -5.326434 9.649034 12.395071 11.962750 -4.413151 69.559544 -62.318698 2.196818 47.851003 -5.881816 -3.997295 -17.560585 -3.122092 13.439755 -11.587047 5.313857 -12.638462 -74.635515 83.706224 -0.403159 -32.000125 15.583142 -10.048041 0.393547 -3.803475 14.573281 0.562005 18.875741 -9.967691 -2.484581 12.207090 -7.157832 0.942502 -0.203564 -0.113217 0.250050 3.833638 30.932883 3.402471 -9.287725 -26.991805 -3.188242 -5.302741 3.103009 -6.205868 -0.498438 -6.500925 0.607768
-47.536877 94.269562 16.955938 118.063422 -3.821934 1.972375 5.214124 -3.557542 -0.846969 2.355072 -1.748062 -0.355874 2.355072 -1.748062 -0.355874 1.765149 -1.312441 -0.260151 27.797090 23.250796 3.988318 49.040817 9.326953 0.768054 -5.364027 9.631075 12.393809 11.995723 -4.317004 69.516814 -62.268739 2.331840 47.870477 -5.921254 -3.995963 -17.550947 -3.156488 13.516257 -11.610052 5.575875 -12.599652 -74.716949 83.723493 -0.389513 -32.012809 15.605308 -10.040190 0.406557 -3.345883 14.244430 0.320465 18.949197 -9.977566 -2.516277 12.340235 -7.002544 1.152242 -0.232932 -0.092316 0.272527 3.650790 30.691927 3.208066 -9.955326 -26.087845 -3.142594 -5.130719 2.821771 -5.990974 -0.423096 -5.696546 0.615515
-47.977457 94.313632 16.846249 117.314866 -3.727251 2.058578 5.185881 -3.674158 -0.881082 2.363442 -1.755257 -0.344702 2.363442 -1.755257 -0.344702 1.771453 -1.317800 -0.251721 27.812850 23.272484 4.024452 49.057954 9.356014 0.834619 -5.405905 9.610587 12.387761 12.006756 -4.220669 69.467176 -62.320849 2.387354 47.816238 -5.986233 -4.044248 -17.575502 -3.212989 13.524951 -11.661461 5.800778 -12.547817 -74.744547 83.741852 -0.385382 -32.039245 15.616020 -10.041850 0.417392 -2.915409 13.861833 0.067943 19.069737 -9.993273 -2.559247 12.235964 -6.878673 1.347702 -0.198198 -0.037620 0.335352 4.084862 30.305706 3.233946 -11.281279 -25.345739 -2.918165 -4.860121 2.575177 -5.906881 -0.375425 -4.881154 0.648789
-48.454939 94.349378 16.744205 116.560433 -3.523744 2.087329 5.150998 -3.860293 -0.882193 2.363675 -1.763153 -0.326408 2.363675 -1.763153 -0.326408 1.771675 -1.323651 -0.237970 27.826442 23.284737 4.033814 49.079003 9.377269 0.852546 -5.429688 9.574503 12.392830 11.955265 -4.131611 69.392003 -62.422920 2.422783 47.701869 -6.076356 -4.103181 -17.610592 -3.281426 13.505622 -11.696464 5.964075 -12.551729 -74.770058 83.768116 -0.382915 -32.083913 15.616392 -10.048440 0.430055 -2.486687 13.338302 -0.099830 19.209637 -9.961979 -2.609624 12.230228 -6.768931 1.520964 -0.094650 0.030664 0.413533 4.660436 29.747135 3.185996 -12.708942 -24.763809 -2.437344 -4.531299 2.426023 -6.014440 -0.308761 -4.077378 0.703484
-48.951106 94.374372 16.654138 115.856556 -3.324414 2.051165 5.068331 -4.006906 -0.833989 2.356564 -1.775367 -0.298631 2.356564 -1.775367 -0.298631 1.766415 -1.332700 -0.217111 27.828026 23.294765 4.023336 49.083726 9.399136 0.837596 -5.441951 9.549582 12.401975 11.835239 -4.050066 69.288258 -62.535446 2.484668 47.571331 -6.170620 -4.165155 -17.644375 -3.327586 13.516850 -11.699261 6.005879 -12.639168 -74.825714 83.788123 -0.385218 -32.160128 15.616891 -10.070457 0.451349 -2.117936 12.785988 -0.206408 19.411299 -9.906915 -2.668366 12.318410 -6.630796 1.737172 -0.019432 0.077023 0.454598 4.516647 29.017378 2.826951 -13.014161 -24.158992 -2.129915 -4.462779 2.447254 -6.330190 -0.147699 -3.392485 0.844047
-49.462523 94.388309 16.577824 115.122436 -3.192342 1.922518 5.016639 -4.071869 -0.691774 2.337597 -1.786509 -0.260103 2.337597 -1.786509 -0.260103 1.752296 -1.340900 -0.188229 27.807960 23.310814 4.003355 49.051281 9.430709 0.811658 -5.434735 9.561798 12.385259 11.671506 -3.981055 69.166408 -62.615425 2.595179 47.455350 -6.266641 -4.197841 -17.643997 -3.309886 13.547806 -11.677572 5.910654 -12.776747 -74.908057 83.787228 -0.392982 -32.267271 15.632395 -10.107873 0.469516 -1.722461 12.266547 -0.253702 19.670290 -9.843530 -2.706574 12.454468 -6.478346 2.022821 -0.010748 0.119247 0.440743 4.015613 28.349563 2.439975 -12.006090 -23.642196 -2.296360 -4.786320 2.577044 -6.669994 0.030451 -2.815374 1.002973
